<svg xmlns="http://www.w3.org/2000/svg" width="19.82" height="28.375" viewBox="0 0 19.82 28.375">
  <path id="Icon_awesome-lightbulb" data-name="Icon awesome-lightbulb" d="M5.136,24.292a1.712,1.712,0,0,0,.287.946l.914,1.374a1.71,1.71,0,0,0,1.424.763h3.3a1.71,1.71,0,0,0,1.424-.763l.914-1.374a1.71,1.71,0,0,0,.287-.946l0-2.05H5.133l0,2.05ZM0,9.41A9.357,9.357,0,0,0,2.329,15.6,15.365,15.365,0,0,1,5.12,20.489c0,.014,0,.028.006.042h8.567c0-.014,0-.027.006-.042A15.365,15.365,0,0,1,16.491,15.6,9.408,9.408,0,1,0,0,9.41ZM9.41,5.133A4.282,4.282,0,0,0,5.133,9.41a.855.855,0,0,1-1.711,0A6,6,0,0,1,9.41,3.422a.855.855,0,0,1,0,1.711Z" transform="translate(0.5 0.5)" fill="none" stroke="#e5e5e5" stroke-width="1"/>
</svg>
