<svg xmlns="http://www.w3.org/2000/svg" width="24.264" height="25.28" viewBox="0 0 24.264 25.28">
  <path id="Icon_awesome-cog" data-name="Icon awesome-cog" d="M24.247,15.621l-2.084-1.2a9.425,9.425,0,0,0,0-3.435l2.084-1.2a.591.591,0,0,0,.269-.685A12.187,12.187,0,0,0,21.84,4.464a.589.589,0,0,0-.724-.113l-2.084,1.2a9.234,9.234,0,0,0-2.975-1.717v-2.4A.586.586,0,0,0,15.6.863a12.3,12.3,0,0,0-5.343,0,.586.586,0,0,0-.46.572V3.843A9.526,9.526,0,0,0,6.818,5.56l-2.08-1.2a.581.581,0,0,0-.724.113A12.113,12.113,0,0,0,1.338,9.1a.585.585,0,0,0,.269.685l2.084,1.2a9.425,9.425,0,0,0,0,3.435l-2.084,1.2a.591.591,0,0,0-.269.685,12.187,12.187,0,0,0,2.677,4.629.589.589,0,0,0,.724.113l2.084-1.2A9.234,9.234,0,0,0,9.8,21.566v2.407a.586.586,0,0,0,.46.572,12.3,12.3,0,0,0,5.343,0,.586.586,0,0,0,.46-.572V21.566a9.526,9.526,0,0,0,2.975-1.717l2.084,1.2a.581.581,0,0,0,.724-.113,12.113,12.113,0,0,0,2.677-4.629.6.6,0,0,0-.274-.69Zm-11.323.993A3.914,3.914,0,1,1,16.839,12.7,3.92,3.92,0,0,1,12.925,16.614Z" transform="translate(-0.793 -0.064)" fill="none" stroke="#e5e5e5" stroke-width="1"/>
</svg>
