<?xml version="1.0" encoding="UTF-8" standalone="no"?>
<!DOCTYPE svg PUBLIC "-//W3C//DTD SVG 1.1//EN" "http://www.w3.org/Graphics/SVG/1.1/DTD/svg11.dtd">
<svg width="100%" height="100%" viewBox="0 0 21 21" version="1.1" xmlns="http://www.w3.org/2000/svg" xmlns:xlink="http://www.w3.org/1999/xlink" xml:space="preserve" xmlns:serif="http://www.serif.com/" style="fill-rule:evenodd;clip-rule:evenodd;stroke-linejoin:round;stroke-miterlimit:2;">
    <g transform="matrix(1,0,0,1,-0.621919,-8.78222e-15)">
        <g transform="matrix(2.05856,0,0,2.05856,-10.3093,-6.91888)">
            <path d="M11.542,5.728C12.855,6.163 13.869,7.257 14.191,8.618C14.788,8.695 15.25,9.218 15.25,9.851C15.25,10.536 14.707,11.093 14.039,11.093C14.022,11.093 14.005,11.093 13.989,11.092C13.382,12.542 11.949,13.562 10.28,13.562C8.609,13.562 7.175,12.54 6.569,11.087C6.553,11.088 6.537,11.088 6.521,11.088C5.853,11.088 5.31,10.532 5.31,9.846C5.31,9.212 5.773,8.689 6.37,8.613C6.791,6.844 8.383,5.526 10.28,5.526C10.505,5.526 10.727,5.544 10.942,5.58C10.979,5.63 11.025,5.682 11.091,5.731C11.362,5.939 11.529,6.256 11.547,6.597C11.539,6.869 11.425,7.126 11.231,7.317C11.085,7.487 10.872,7.587 10.646,7.591C10.425,7.58 10.216,7.486 10.061,7.328C9.979,7.254 9.929,7.152 9.921,7.042C9.927,6.837 10.003,6.696 10.137,6.656L10.219,6.656C10.335,6.66 10.442,6.716 10.512,6.808C10.544,6.85 10.593,6.875 10.646,6.878C10.684,6.879 10.722,6.866 10.752,6.843C10.787,6.813 10.81,6.771 10.816,6.726C10.822,6.682 10.809,6.637 10.781,6.603C10.645,6.417 10.426,6.31 10.196,6.316C10.134,6.305 10.071,6.305 10.009,6.316C9.729,6.429 9.554,6.712 9.576,7.012C9.578,7.214 9.663,7.406 9.81,7.545C10.02,7.769 10.31,7.901 10.617,7.913C10.927,7.901 11.22,7.766 11.43,7.539C11.688,7.281 11.835,6.932 11.84,6.568C11.829,6.289 11.74,6.019 11.582,5.79L11.542,5.728ZM10.261,12.04C10.029,12.04 9.811,11.923 9.683,11.729C9.668,11.694 9.668,11.654 9.683,11.618C9.689,11.581 9.711,11.547 9.744,11.528C9.767,11.512 9.795,11.503 9.824,11.503C9.873,11.502 9.918,11.527 9.945,11.568C10.021,11.678 10.147,11.744 10.281,11.744C10.417,11.744 10.544,11.678 10.623,11.568C10.649,11.527 10.695,11.502 10.744,11.503C10.772,11.503 10.8,11.512 10.824,11.528C10.89,11.572 10.908,11.663 10.864,11.729C10.731,11.93 10.503,12.049 10.261,12.04ZM8.651,10.183C8.213,10.182 7.802,9.963 7.556,9.6C7.51,9.533 7.526,9.442 7.591,9.394C7.615,9.373 7.645,9.359 7.676,9.354C7.724,9.356 7.769,9.38 7.797,9.419C7.98,9.714 8.304,9.895 8.651,9.895C8.999,9.895 9.323,9.714 9.506,9.419C9.534,9.38 9.578,9.356 9.626,9.354C9.657,9.354 9.686,9.363 9.712,9.379C9.778,9.425 9.796,9.517 9.752,9.585C9.507,9.953 9.094,10.178 8.651,10.183ZM11.908,10.183C11.468,10.183 11.055,9.964 10.807,9.6C10.763,9.532 10.781,9.44 10.848,9.394C10.872,9.379 10.9,9.37 10.928,9.369C10.978,9.369 11.025,9.393 11.054,9.434C11.237,9.729 11.561,9.91 11.908,9.91C12.256,9.91 12.579,9.729 12.763,9.434C12.785,9.387 12.831,9.356 12.883,9.354C12.912,9.354 12.94,9.362 12.964,9.379C13.005,9.406 13.03,9.452 13.03,9.501C13.03,9.531 13.021,9.56 13.004,9.585C12.761,9.954 12.35,10.179 11.908,10.183Z" style="fill:white;"/>
        </g>
        <g transform="matrix(2.05856,0,0,2.05856,-13.4697,1.23527)">
            <g transform="matrix(0.502597,0,0,0.502597,5.85062,-1.34893)">
                <path d="M9,4.57C8.881,4.574 8.772,4.501 8.73,4.39C8.683,4.281 8.707,4.154 8.79,4.07L10.79,2.07L9.23,2.07C9.071,2.07 8.94,1.939 8.94,1.78C8.94,1.621 9.071,1.49 9.23,1.49L11.53,1.49C11.648,1.489 11.755,1.561 11.8,1.67C11.842,1.781 11.814,1.907 11.73,1.99L9.73,3.99L11.73,3.99C11.891,3.995 12.02,4.129 12.02,4.29C12.02,4.449 11.889,4.58 11.73,4.58L9,4.57Z" style="fill:white;fill-rule:nonzero;"/>
            </g>
            <g transform="matrix(0.502597,0,0,0.502597,5.85062,-1.34893)">
                <path d="M5.9,6.19C5.779,6.192 5.669,6.115 5.63,6C5.583,5.891 5.607,5.764 5.69,5.68L6.94,4.46L6.06,4.46C5.901,4.46 5.77,4.329 5.77,4.17C5.77,4.011 5.901,3.88 6.06,3.88L7.66,3.88C7.775,3.881 7.879,3.952 7.92,4.06C7.967,4.169 7.943,4.296 7.86,4.38L6.61,5.61L7.75,5.61C7.909,5.61 8.04,5.741 8.04,5.9C8.04,6.059 7.909,6.19 7.75,6.19L5.9,6.19Z" style="fill:white;fill-rule:nonzero;"/>
            </g>
        </g>
    </g>
</svg>
