<svg xmlns="http://www.w3.org/2000/svg" width="15.574" height="16.439" viewBox="0 0 15.574 16.439">
  <path id="Subtraction_1" data-name="Subtraction 1" d="M-7957.186-1476.7h-3.2a.409.409,0,0,1-.4-.35l-.3-2.177a5.921,5.921,0,0,1-1.352-.8l-1.991.822a.426.426,0,0,1-.139.023.392.392,0,0,1-.351-.207l-1.6-2.847a.427.427,0,0,1,.1-.524l1.691-1.356a5.337,5.337,0,0,1-.06-.8,5.248,5.248,0,0,1,.07-.8l-1.691-1.356a.4.4,0,0,1-.1-.524l1.6-2.847a.4.4,0,0,1,.348-.211.384.384,0,0,1,.142.027l1.994.822a5.912,5.912,0,0,1,1.352-.8l.3-2.179a.392.392,0,0,1,.39-.348h3.2a.4.4,0,0,1,.4.348l.3,2.179a5.8,5.8,0,0,1,1.352.8l1.992-.822a.426.426,0,0,1,.139-.023.4.4,0,0,1,.353.207l1.6,2.847a.433.433,0,0,1-.1.524l-1.691,1.356a5.183,5.183,0,0,1,.06.8,6.9,6.9,0,0,1-.05.8l1.672,1.356a.405.405,0,0,1,.1.524l-1.6,2.847a.4.4,0,0,1-.348.211.392.392,0,0,1-.144-.027l-1.991-.822a6.042,6.042,0,0,1-1.352.8l-.3,2.177A.385.385,0,0,1-7957.186-1476.7Zm-1.6-11.3a3.047,3.047,0,0,0-3,3.083,3.046,3.046,0,0,0,3,3.081,3.046,3.046,0,0,0,3-3.081A3.047,3.047,0,0,0-7958.788-1488Z" transform="translate(7966.574 1493.138)" fill="#fff"/>
</svg>
