<svg xmlns="http://www.w3.org/2000/svg" width="23.662" height="18.401" viewBox="0 0 23.662 18.401">
  <path id="Icon_awesome-home" data-name="Icon awesome-home" d="M11.516,7.027,3.943,13.265V20a.657.657,0,0,0,.657.657l4.6-.012a.657.657,0,0,0,.654-.657V16.053a.657.657,0,0,1,.657-.657h2.629a.657.657,0,0,1,.657.657v3.929a.657.657,0,0,0,.657.659l4.6.013A.657.657,0,0,0,19.717,20V13.26L12.145,7.027A.5.5,0,0,0,11.516,7.027Zm11.963,4.24L20.045,8.436V2.746a.493.493,0,0,0-.493-.493h-2.3a.493.493,0,0,0-.493.493V5.729L13.081,2.7a1.972,1.972,0,0,0-2.506,0L.178,11.267a.493.493,0,0,0-.066.694L1.16,13.234a.493.493,0,0,0,.695.067l9.662-7.958a.5.5,0,0,1,.628,0L21.807,13.3a.493.493,0,0,0,.694-.066l1.047-1.273a.493.493,0,0,0-.07-.7Z" transform="translate(0.001 -2.254)" fill="#fff"/>
</svg>
