<svg xmlns="http://www.w3.org/2000/svg" width="48.028" height="48.803" viewBox="0 0 48.028 48.803">
  <path id="Icon_awesome-power-off" data-name="Icon awesome-power-off" d="M38.52,5.239a24.011,24.011,0,1,1-27.907.01A2.331,2.331,0,0,1,14,5.994l1.53,2.721a2.323,2.323,0,0,1-.639,3,16.266,16.266,0,1,0,19.356-.01,2.31,2.31,0,0,1-.629-2.992l1.53-2.721a2.321,2.321,0,0,1,3.37-.755ZM28.45,25.563V2.324A2.318,2.318,0,0,0,26.126,0h-3.1A2.318,2.318,0,0,0,20.7,2.324V25.563a2.318,2.318,0,0,0,2.324,2.324h3.1A2.318,2.318,0,0,0,28.45,25.563Z" transform="translate(-0.562)" fill="#fff"/>
</svg>
