<svg xmlns="http://www.w3.org/2000/svg" width="20.081" height="20.152" viewBox="0 0 20.081 20.152">
  <path id="Icon_awesome-leaf" data-name="Icon awesome-leaf" d="M19.046.381a.519.519,0,0,0-.987-.047,5.9,5.9,0,0,1-5.226,3.444H10.044c-3.7,0-6.694,3.384-6.694,7.556,0,.275.028.539.052.807a15.393,15.393,0,0,1,9.989-3.325.634.634,0,0,1,0,1.259C4.625,10.074.908,16.139.086,18.417A1.32,1.32,0,0,0,.7,20.054a1.076,1.076,0,0,0,1.457-.681A10.35,10.35,0,0,1,4.66,15.808a6.41,6.41,0,0,0,6.1,3.038c5.474-.449,9.327-5.99,9.327-12.774A15.9,15.9,0,0,0,19.046.381Z" transform="translate(-0.004 0.002)" fill="#fff"/>
</svg>
