<svg xmlns="http://www.w3.org/2000/svg" width="22.155" height="25.007" viewBox="0 0 22.155 25.007">
  <path id="Icon_awesome-fan" data-name="Icon awesome-fan" d="M15.256,6.252a8.771,8.771,0,0,0-3.334.628L12.459.867a.752.752,0,0,0-.8-.861C8.205.495,5.539,3.792,5.539,7.787A12.315,12.315,0,0,0,6.1,11.55L.768,10.944a.762.762,0,0,0-.762.908c.433,3.893,3.354,6.9,6.893,6.9a8.771,8.771,0,0,0,3.334-.628L9.7,24.139a.753.753,0,0,0,.8.861c3.449-.488,6.116-3.786,6.116-7.78a12.315,12.315,0,0,0-.556-3.764l5.327.606a.763.763,0,0,0,.762-.908c-.433-3.893-3.354-6.9-6.893-6.9Zm-4.179,7.815A1.482,1.482,0,0,1,9.693,12.5a1.482,1.482,0,0,1,1.385-1.563A1.482,1.482,0,0,1,12.462,12.5,1.482,1.482,0,0,1,11.077,14.066Z" transform="translate(0 0)" fill="#fff"/>
</svg>
