<svg xmlns="http://www.w3.org/2000/svg" width="19.67" height="22.202" viewBox="0 0 19.67 22.202">
  <path id="Icon_awesome-baby-carriage" data-name="Icon awesome-baby-carriage" d="M5.563.737A1.345,1.345,0,0,0,3.488.329,10.729,10.729,0,0,0,0,8.325H9.835ZM19.055,4.162H17.211a2.634,2.634,0,0,0-2.459,2.775V9.713H0A8.137,8.137,0,0,0,2.317,15.38,3.416,3.416,0,0,0,0,18.732,3.288,3.288,0,0,0,3.073,22.2a3.288,3.288,0,0,0,3.073-3.469,3.912,3.912,0,0,0-.169-1.093,8.854,8.854,0,0,0,5.256,0,3.777,3.777,0,0,0-.169,1.093A3.288,3.288,0,0,0,14.138,22.2a3.288,3.288,0,0,0,3.073-3.469,3.416,3.416,0,0,0-2.317-3.352,8.137,8.137,0,0,0,2.317-5.667V6.938h1.844a.66.66,0,0,0,.615-.694V4.856A.66.66,0,0,0,19.055,4.162ZM3.073,20.12a1.4,1.4,0,0,1,0-2.775,1.4,1.4,0,0,1,0,2.775Zm12.294-1.388a1.32,1.32,0,0,1-1.229,1.388,1.4,1.4,0,0,1,0-2.775A1.32,1.32,0,0,1,15.367,18.732Z" transform="translate(0 0.001)" fill="#fff"/>
</svg>
