<svg xmlns="http://www.w3.org/2000/svg" width="25.252" height="18.422" viewBox="0 0 25.252 18.422">
  <g id="YS-dohm" transform="translate(0 0)">
    <path id="Path_261" data-name="Path 261" d="M783.5,355.679l.048,0h7.273a1.818,1.818,0,0,0,1.538-.912l.256-.419a.785.785,0,0,1,.665-.394h5.438a.786.786,0,0,1,.665.394l.256.419a1.818,1.818,0,0,0,1.538.912h7.273l.048,0,.1.762a3.58,3.58,0,0,1-.68,2.617,2.78,2.78,0,0,1-2.2,1.133H786.284a2.78,2.78,0,0,1-2.2-1.133,3.58,3.58,0,0,1-.68-2.617Zm12.5-.78a2.171,2.171,0,1,1-1.909,2.155A2.044,2.044,0,0,1,796,354.9Zm-12.3-.781,1.15-9a3.627,3.627,0,0,1,3.426-3.35h15.447a3.627,3.627,0,0,1,3.426,3.35l1.15,9h-7.121a.471.471,0,0,1-.4-.236l-.256-.419a2.133,2.133,0,0,0-1.8-1.069h-5.438a2.133,2.133,0,0,0-1.8,1.069l-.256.419a.471.471,0,0,1-.4.236Zm10.559-9.065,2.668,5.088a.65.65,0,0,0,.948.275.84.84,0,0,0,.243-1.07l-2.668-5.088a.651.651,0,0,0-.948-.275A.84.84,0,0,0,794.263,345.053Zm-6.064,0,2.669,5.088a.651.651,0,0,0,.948.275.841.841,0,0,0,.243-1.07l-2.668-5.088a.651.651,0,0,0-.948-.275A.84.84,0,0,0,788.2,345.053Zm11.748,0,2.669,5.088a.65.65,0,0,0,.948.275.841.841,0,0,0,.243-1.07l-2.668-5.088a.651.651,0,0,0-.948-.275A.84.84,0,0,0,799.947,345.053Z" transform="translate(-783.377 -341.77)" fill="#fff"/>
  </g>
</svg>
