<svg xmlns="http://www.w3.org/2000/svg" viewBox="0 0 1347.68 372.26"><defs><style>.cls-1{fill:#5bc1de;}.cls-2{fill:#798bbd;}</style></defs><g id="Layer_2" data-name="Layer 2"><g id="Layer_1-2" data-name="Layer 1"><path class="cls-1" d="M211.33,0a67.9,67.9,0,0,0-17.16,2.26c1.47-.11,2.93-.22,4.43-.22,31.64,0,57.29,25.13,57.29,56.13s-25.65,56.12-57.29,56.12A57.32,57.32,0,0,1,146.29,81c7.07,28.81,33.47,50.24,65,50.24,37,0,67-29.38,67-65.61S248.31,0,211.33,0"/><path class="cls-2" d="M66.22,84.58v42.51H48.83V84.23L0,4.13H18.8L58.14,69,97.66,4.13h17.4ZM415.35,64.91h16.86v48c-12.29,10.36-29.33,15.63-46.55,15.63-37.76,0-65.52-26.52-65.52-62.88S347.9,2.72,386,2.72c19.5,0,36,6.5,47.26,19L422.38,32.58c-10.19-9.83-21.78-14.22-35.66-14.22-28.46,0-49,19.85-49,47.25,0,27.05,20.55,47.25,48.83,47.25,10.37,0,20-2.29,28.81-7.91Zm163,31.44H513l-13.52,30.74H481.36L537,4.13h17.39l55.86,123H591.84Zm-6.15-14L545.64,22.05,519.12,82.3ZM651.53,113,658,99.33c9.13,8.26,24.76,14.23,40.57,14.23,21.26,0,30.39-8.26,30.39-19,0-30-74.48-11.06-74.48-56.74,0-19,14.76-35.13,47.08-35.13,14.4,0,29.33,3.87,39.52,10.89l-5.8,14.06a63.49,63.49,0,0,0-33.72-10c-20.9,0-29.86,8.79-29.86,19.5,0,30,74.48,11.24,74.48,56.39,0,18.79-15.11,35-47.61,35-18.79,0-37.24-6.32-47.07-15.45M806.07,4.13h17.56V111.81H890.2v15.28H806.07Zm227.79,107.68v15.28H944.63V4.13h86.77V19.41H962.19V57.18h61.66V72.11H962.19v39.7Zm151.9,0v15.28h-89.23V4.13h86.77V19.41h-69.2V57.18h61.65V72.11H1114.1v39.7ZM1347.68,47c0,26.7-19.32,42.86-51.29,42.86H1266v37.24h-17.56V4.13h48c32,0,51.29,16.16,51.29,42.86m-17.56,0c0-17.57-11.77-27.58-34.26-27.58H1266V74.57h29.86c22.49,0,34.26-10,34.26-27.58"/><path class="cls-2" d="M1344.79,116.79a11.63,11.63,0,1,1-11.59-11.56,11.34,11.34,0,0,1,11.59,11.56m-1.91,0a9.47,9.47,0,0,0-9.68-9.75,9.82,9.82,0,1,0,9.68,9.75m-6.32,2.11,2.89,4.44h-2.83l-2.57-4h-2.93v4h-2.83v-13h5.4c3.42,0,5.47,1.78,5.47,4.51a4.07,4.07,0,0,1-2.6,4m-3-1.72c1.84,0,2.89-.85,2.89-2.3s-1.05-2.27-2.89-2.27h-2.44v4.57Z"/><path class="cls-1" d="M511.92,308a54.68,54.68,0,0,1,.65-8.54c.44-2.72,1-5.47,1.7-8.24s1.47-5.54,2.35-8.31l8.62-26.32q10.23-32,12.85-50,.85-6.47,6.31-6.46a8.78,8.78,0,0,1,5.47,1.69q4.08,3.32,4,7a47.64,47.64,0,0,1-1.08,8.32q-1,4.58-2.46,10t-3.42,11.32q-5.16,15.24-7.7,22l-4.39,11.47q6.71-10.38,10.93-14.24,8.47-7.46,17.63-7.46,13.47,0,17.93,14.08a42.33,42.33,0,0,1,1.47,12.09,50.13,50.13,0,0,1-2.12,14.35A58.65,58.65,0,0,1,566.46,315a60.38,60.38,0,0,1-10.13,8.39q-11.24,7.23-21.78,7.23t-16.7-6.46A23,23,0,0,1,511.92,308Zm21.55,12.63q7.24,0,14.7-6.47,11.4-9.86,15.32-28.17a58.71,58.71,0,0,0,1.31-12.51c0-4.33-.49-7.38-1.46-9.12a4.84,4.84,0,0,0-4.5-2.62,10.74,10.74,0,0,0-6.36,2.47,48.23,48.23,0,0,0-6.92,6.5A85.19,85.19,0,0,0,538.4,280a103.8,103.8,0,0,0-6.39,10.9q-6.24,12.39-6.23,21.05T533.47,320.63Z"/><path class="cls-1" d="M653.55,309.39q0,7.08,5,7.08a13.39,13.39,0,0,0,5.74-1.08,9.55,9.55,0,0,1,3-1.07c1.08,0,1.62.56,1.62,1.69q0,6.62-6.93,11.39-7.32,5-14.93,2.46-5-1.77-7.39-7.62a15.37,15.37,0,0,1-1.16-5.46,50.29,50.29,0,0,1,.77-8.47q-7.15,14.63-17.78,20.17a19.52,19.52,0,0,1-9,2.15,16.61,16.61,0,0,1-8.27-2,18.25,18.25,0,0,1-6-5.43q-5-7.23-4.54-18.16a56.94,56.94,0,0,1,8.08-26.86,62.71,62.71,0,0,1,17.71-20.09q10.69-7.94,20-7.93t15,8.54q5.31-8.53,9.39-8.54c2.93,0,5.13.54,6.62,1.61,2.82,2.06,3.83,3.85,3,5.39q-19.32,39.57-19.86,49.26A27.33,27.33,0,0,0,653.55,309.39Zm-42.72.31q0,9.24,5.93,9.23,4.54,0,11.16-7.69,9.69-11.33,17.16-30.48a111.28,111.28,0,0,0,4-12,9,9,0,0,0-4.39-7.7,8.07,8.07,0,0,0-4.12-.85,13.82,13.82,0,0,0-6.39,2,31,31,0,0,0-7.08,5.47,47.54,47.54,0,0,0-6.39,8.2,64.93,64.93,0,0,0-5.19,10.27A63.66,63.66,0,0,0,610.83,309.7Z"/><path class="cls-1" d="M680.18,308a53.47,53.47,0,0,1,.66-8.54c.43-2.72,1-5.47,1.69-8.24s1.48-5.54,2.35-8.31l8.62-26.32q10.25-32,12.85-50,.85-6.47,6.32-6.46a8.77,8.77,0,0,1,5.46,1.69q4.08,3.32,4,7a48.61,48.61,0,0,1-1.08,8.32q-1,4.58-2.46,10t-3.43,11.32q-5.16,15.24-7.7,22L703,271.9q6.71-10.38,10.94-14.24,8.46-7.46,17.62-7.46,13.47,0,17.94,14.08A42.72,42.72,0,0,1,751,276.37a50.13,50.13,0,0,1-2.12,14.35A58.82,58.82,0,0,1,743.15,304,57.94,57.94,0,0,1,734.72,315a60.32,60.32,0,0,1-10.12,8.39q-11.24,7.23-21.79,7.23t-16.7-6.46A23,23,0,0,1,680.18,308Zm21.56,12.63q7.23,0,14.7-6.47,11.38-9.86,15.32-28.17a58.71,58.71,0,0,0,1.3-12.51c0-4.33-.48-7.38-1.46-9.12a4.82,4.82,0,0,0-4.5-2.62,10.71,10.71,0,0,0-6.35,2.47,47.74,47.74,0,0,0-6.93,6.5,85.19,85.19,0,0,0-7.16,9.31,103.8,103.8,0,0,0-6.39,10.9Q694,303.31,694,312T701.74,320.63Z"/><path class="cls-1" d="M762.24,322.4a16.86,16.86,0,0,1-.93-5.81,28,28,0,0,1,1.12-7.32,77.35,77.35,0,0,1,2.89-8.42q1.77-4.39,3.85-9l4.15-9.24q8-17.78,5.93-21.09a9.81,9.81,0,0,0-3.47-2.92,2,2,0,0,1-.92-1.89,3.79,3.79,0,0,1,1.12-2.58,10,10,0,0,1,2.88-2.15,17.65,17.65,0,0,1,7.55-1.77,15.69,15.69,0,0,1,5.73.81,9.47,9.47,0,0,1,3.2,2,7.79,7.79,0,0,1,2.54,5.61,27.66,27.66,0,0,1-1,6.89q-1,3.81-2.62,8.28t-3.54,9.23q-5.31,12.48-7.16,16.48l-2.85,5.92q-2.38,5.31-2.39,7.47a5,5,0,0,0,.7,3,3,3,0,0,0,2.5.89,7.68,7.68,0,0,0,4-1.39,35.08,35.08,0,0,0,4.74-3.69c1.69-1.54,3.45-3.33,5.27-5.35s3.6-4.15,5.35-6.35A101.92,101.92,0,0,0,811,285.53q16.62-30.64,17.63-32c1.69-2.21,3.4-3.31,5.11-3.31a16,16,0,0,1,4.51.57,10.19,10.19,0,0,1,3.31,1.66q3.07,2.23,1.88,5t-2.88,7.62q-14.62,42.42-19,52.88T814,334.75a121.27,121.27,0,0,1-7.58,12.82,96.63,96.63,0,0,1-9.28,11.78q-11.23,12-21.09,12.85a9.67,9.67,0,0,1-6-1.08q-3.86-2.31-3.85-4.39t3.5-2.88a23,23,0,0,0,7.24-3.23,52.36,52.36,0,0,0,7.19-5.66A75,75,0,0,0,800,333.87a158.67,158.67,0,0,0,7.7-18.94l6-18.32q-2.24,2.7-4.93,6.31l-5.54,7.39q-7.25,9.17-12,13-9.09,7.32-16.24,7.31Q765.39,330.63,762.24,322.4Z"/></g></g></svg>