<svg xmlns="http://www.w3.org/2000/svg" viewBox="0 0 513.62 273.63"><defs><style>.cls-1{fill:#b4e3f0;}.cls-2{fill:#fabd20;}</style></defs><g id="Layer_2" data-name="Layer 2"><g id="Layer_1-2" data-name="Layer 1"><path class="cls-1" d="M460.38,172.81c-5.89,1-5.94.92-6.86-4.71a84.21,84.21,0,0,0-13.09-33.89c-2.06-2.48-3.61-5.35-5.79-7.74Q400.8,89.41,351.73,100c-3.19.69-6.1,2.1-9.16,3.18-.94.33-3.54,1.63-4.41.94-1.24-1-.79-5.52-.84-7-.13-3.47,0-7-.28-10.42-.49-6.17-1.22-12.45-3.54-18.23-11.62-28.83-43.83-43.6-74.74-40.6C225,31.16,200.83,57.34,194.91,89.68a4.86,4.86,0,0,1-2.9-.94c-31-20-64.49-5-78.4,25.76-1.65,3.66-3.6,3.75-6.77,2.45C93.57,111.5,81,112.44,67,114.22,47.66,116.7,30.47,124.56,17.57,139,.92,157.61-2.16,178.77,1.22,203.31S14.64,247.15,34.8,261c14.05,8.91,29.33,12.47,46,12.28,21-.24,42.06-.26,63.08-.22,16,0,32,1.07,48,.29,43.28-2.1,86.64-1.47,130-1.27,43.51.2,87.05.46,130.55-.51q7.92-.18,15.83-.42a31.56,31.56,0,0,0,11-2c2.49-1.23,5.12-2.14,7.59-3.42a50,50,0,0,0,26.4-35.41,8.82,8.82,0,0,0,.26-1.62,87.14,87.14,0,0,0,0-12.62s-4.83-40.84-38.83-42.68"/><path class="cls-2" d="M504.71,130.92a7.09,7.09,0,0,0-5.77-4.77l-28-3.77L458.21,97.2a7.42,7.42,0,0,0-6.4-3.89,7.1,7.1,0,0,0-6.32,4l-12.23,25.44-27.89,4.35a7.09,7.09,0,0,0-3.81,12.14L422,158.75l-4.49,27.88A7.09,7.09,0,0,0,427.86,194l24.85-13.4,25.12,12.88a7.1,7.1,0,0,0,10.22-7.58L483,158.12l20-19.91A7.08,7.08,0,0,0,504.71,130.92Z"/><path class="cls-2" d="M438.34,33.63l-15.19-10.5.05-18.48A4.64,4.64,0,0,0,415.74,1l-14.69,11.2L383.49,6.4a4.64,4.64,0,0,0-5.82,5.95l6.12,17.43-10.9,14.91a4.65,4.65,0,0,0-.36,4.89,4.79,4.79,0,0,0,4.22,2.49l18.47-.42,10.81,15a4.65,4.65,0,0,0,3.77,1.93,4.08,4.08,0,0,0,.77-.07,4.64,4.64,0,0,0,3.67-3.24l5.3-17.7,17.58-5.66a4.65,4.65,0,0,0,1.22-8.24Z"/></g></g></svg>