<svg id="Layer_1" data-name="Layer 1" xmlns="http://www.w3.org/2000/svg" viewBox="0 0 20.09 21.76"><path d="M12.27,3.65a.55.55,0,0,1-.55-.55V1.73a.55.55,0,0,1,.55-.55.54.54,0,0,1,.55.55V3.1A.55.55,0,0,1,12.27,3.65Z" transform="translate(-2.23 -1.18)"/><path d="M6.53,6a.59.59,0,0,1-.39-.16l-1-1a.56.56,0,0,1,0-.78.54.54,0,0,1,.78,0l1,1a.56.56,0,0,1,0,.78A.59.59,0,0,1,6.53,6Z" transform="translate(-2.23 -1.18)"/><path d="M4.15,11.77H2.78a.55.55,0,0,1-.55-.55.55.55,0,0,1,.55-.55H4.15a.55.55,0,0,1,.55.55A.55.55,0,0,1,4.15,11.77Z" transform="translate(-2.23 -1.18)"/><path d="M20.4,11.77a.54.54,0,0,1-.55-.55.55.55,0,0,1,.55-.55h1.37a.55.55,0,0,1,.55.55.55.55,0,0,1-.55.55Z" transform="translate(-2.23 -1.18)"/><path d="M18,6a.59.59,0,0,1-.39-.16.54.54,0,0,1,0-.78l1-1a.54.54,0,0,1,.78,0,.56.56,0,0,1,0,.78l-1,1A.59.59,0,0,1,18,6Z" transform="translate(-2.23 -1.18)"/><path d="M13.45,22.94h-2.3a.41.41,0,0,1-.39-.4.39.39,0,0,1,.39-.4h2.3a.4.4,0,0,1,.4.4h0A.41.41,0,0,1,13.45,22.94Z" transform="translate(-2.23 -1.18)"/><path d="M14.52,19.44H10.14A1.26,1.26,0,0,1,8.86,18.2V16.75a6.52,6.52,0,1,1,6.93,0v1.43a1.26,1.26,0,0,1-1.27,1.26Zm-2.23-14A5.73,5.73,0,0,0,9.45,16.18a.39.39,0,0,1,.21.34v1.66a.48.48,0,0,0,.47.48H14.5a.47.47,0,0,0,.48-.48h0V16.49a.42.42,0,0,1,.19-.35A5.73,5.73,0,0,0,12.29,5.47Z" transform="translate(-2.23 -1.18)"/><path d="M15,21.13H9.61a.39.39,0,0,1-.39-.4.38.38,0,0,1,.39-.39H15a.38.38,0,0,1,.39.39h0A.39.39,0,0,1,15,21.13Z" transform="translate(-2.23 -1.18)"/></svg>