<svg id="Layer_1" data-name="Layer 1" xmlns="http://www.w3.org/2000/svg" viewBox="0 0 20.98 20.56"><path d="M6.12,22.28c-2.59,0-4.61-1.33-4.61-3s2-3,4.61-3,4.6,1.33,4.6,3S8.7,22.28,6.12,22.28Zm0-5.05c-2,0-3.61.93-3.61,2s1.65,2,3.61,2,3.6-.93,3.6-2S8.07,17.23,6.12,17.23Z" transform="translate(-1.51 -1.72)"/><path d="M10.22,19.76a.5.5,0,0,1-.5-.5v-17a.5.5,0,0,1,.86-.35l6.58,6.58a.5.5,0,0,1-.71.71L10.72,3.43V19.26A.5.5,0,0,1,10.22,19.76Z" transform="translate(-1.51 -1.72)"/><path d="M22,15.56H13.77a.5.5,0,0,1,0-1H22a.5.5,0,0,1,0,1Z" transform="translate(-1.51 -1.72)"/><path d="M22,18.75H13.77a.5.5,0,1,1,0-1H22a.5.5,0,0,1,0,1Z" transform="translate(-1.51 -1.72)"/><path d="M22,21.94H13.77a.51.51,0,0,1,0-1H22a.51.51,0,0,1,0,1Z" transform="translate(-1.51 -1.72)"/></svg>