<svg id="Layer_1" data-name="Layer 1" xmlns="http://www.w3.org/2000/svg" viewBox="0 0 19.45 12.95"><path d="M17.35,17.63h0l-14.21,0A2.41,2.41,0,0,1,.7,15.16.27.27,0,0,1,1,14.87a.29.29,0,0,1,.29.27A1.87,1.87,0,0,0,3.15,17l14.2,0h0a1.92,1.92,0,0,0,1.95-1.89.28.28,0,0,1,.28-.27h0a.27.27,0,0,1,.27.28A2.5,2.5,0,0,1,17.35,17.63Z" transform="translate(-0.55 -4.68)"/><path d="M16.55,5.25A2.17,2.17,0,0,1,18.82,7l.62,6.89s0,0,0,0h-5a.62.62,0,0,1-.59-.44l0-.12a.91.91,0,0,0-.87-.64H7.81a.9.9,0,0,0-.84.58l-.06.13a.6.6,0,0,1-.57.4l-5.2,0h0s0,0,0,0L1.91,7A2.2,2.2,0,0,1,4.2,5.25H16.55m0-.57H4.2A2.75,2.75,0,0,0,1.35,6.89L.56,13.73a.57.57,0,0,0,.58.65l5.21,0a1.18,1.18,0,0,0,1.09-.75l0-.14a.35.35,0,0,1,.32-.22H12.9a.35.35,0,0,1,.33.25l0,.12a1.19,1.19,0,0,0,1.13.83h5a.59.59,0,0,0,.43-.19A.58.58,0,0,0,20,13.8l-.62-6.9a2.72,2.72,0,0,0-2.83-2.22Z" transform="translate(-0.55 -4.68)"/><path d="M10.28,16.15a1.23,1.23,0,1,1,1.23-1.23A1.23,1.23,0,0,1,10.28,16.15Zm0-1.9a.67.67,0,1,0,.67.67A.67.67,0,0,0,10.28,14.25Z" transform="translate(-0.55 -4.68)"/><path d="M9.41,7.59a.22.22,0,0,0-.16,0A.28.28,0,0,0,9.18,8l2.3,3.28a.28.28,0,1,0,.46-.32L9.64,7.71A.28.28,0,0,0,9.41,7.59Z" transform="translate(-0.55 -4.68)"/><path d="M3.83,7.59a.22.22,0,0,0-.16,0A.28.28,0,0,0,3.6,8l2.3,3.28A.28.28,0,1,0,6.36,11L4.06,7.71A.28.28,0,0,0,3.83,7.59Z" transform="translate(-0.55 -4.68)"/><path d="M14.68,7.59a.24.24,0,0,0-.16,0,.28.28,0,0,0-.07.39l2.3,3.28a.28.28,0,1,0,.46-.32l-2.3-3.28A.27.27,0,0,0,14.68,7.59Z" transform="translate(-0.55 -4.68)"/></svg>