<svg id="Layer_1" data-name="Layer 1" xmlns="http://www.w3.org/2000/svg" viewBox="0 0 22.66 12.04"><path d="M17.17,16.28a.4.4,0,0,1-.15,0,.46.46,0,0,1-.29-.6A4.94,4.94,0,0,0,17,14.07a4.87,4.87,0,0,0-9.73,0,5,5,0,0,0,.26,1.58.46.46,0,0,1-.29.6.49.49,0,0,1-.6-.29,6,6,0,0,1-.31-1.89,5.81,5.81,0,0,1,11.61,0A6,6,0,0,1,17.62,16,.48.48,0,0,1,17.17,16.28Z" transform="translate(-0.8 -5.49)"/><path d="M12.13,7.6a.48.48,0,0,1-.48-.47V6a.48.48,0,0,1,.48-.47A.47.47,0,0,1,12.6,6V7.13A.47.47,0,0,1,12.13,7.6Z" transform="translate(-0.8 -5.49)"/><path d="M7.22,9.63a.5.5,0,0,1-.34-.13l-.82-.83a.47.47,0,0,1,0-.67.47.47,0,0,1,.66,0l.83.83a.48.48,0,0,1,0,.67A.46.46,0,0,1,7.22,9.63Z" transform="translate(-0.8 -5.49)"/><path d="M5.18,14.54H4a.47.47,0,1,1,0-.94H5.18a.47.47,0,1,1,0,.94Z" transform="translate(-0.8 -5.49)"/><path d="M19.07,14.54a.47.47,0,0,1,0-.94h1.17a.47.47,0,0,1,0,.94Z" transform="translate(-0.8 -5.49)"/><path d="M17,9.63a.46.46,0,0,1-.33-.13.48.48,0,0,1,0-.67L17.53,8a.47.47,0,0,1,.66,0,.47.47,0,0,1,0,.67l-.82.83A.5.5,0,0,1,17,9.63Z" transform="translate(-0.8 -5.49)"/><path d="M23,17.53H1.27a.47.47,0,0,1,0-.94H23a.47.47,0,0,1,0,.94Z" transform="translate(-0.8 -5.49)"/></svg>