<svg id="Layer_1" data-name="Layer 1" xmlns="http://www.w3.org/2000/svg" viewBox="0 0 20.02 15.64"><path d="M21.07,6.06H2.93a.94.94,0,1,1,0-1.88H21.07a.94.94,0,1,1,0,1.88Z" transform="translate(-1.99 -4.18)"/><path d="M10.07,12.94H2.93a.94.94,0,1,1,0-1.88h7.14a.94.94,0,0,1,0,1.88Z" transform="translate(-1.99 -4.18)"/><path d="M10.07,19.82H2.93a.94.94,0,1,1,0-1.88h7.14a.94.94,0,0,1,0,1.88Z" transform="translate(-1.99 -4.18)"/><path d="M14.14,18.88V12A.94.94,0,0,1,16,12h0v6.88a.94.94,0,0,1-1.88,0Z" transform="translate(-1.99 -4.18)"/><path d="M14.26,19.34a.93.93,0,0,1,.36-1.28l6-3.38h0a.94.94,0,1,1,.92,1.64l-6,3.38A1,1,0,0,1,14.26,19.34Z" transform="translate(-1.99 -4.18)"/><path d="M20.61,16.2l-6-3.38a.93.93,0,0,1-.36-1.28,1,1,0,0,1,1.28-.36h0l6,3.38a.94.94,0,0,1-.92,1.64Z" transform="translate(-1.99 -4.18)"/></svg>