<svg id="Layer_1" data-name="Layer 1" xmlns="http://www.w3.org/2000/svg" viewBox="0 0 21.1 18.71"><path d="M7.27,7.08A2.22,2.22,0,1,1,9.49,4.86,2.22,2.22,0,0,1,7.27,7.08Zm0-3.55A1.33,1.33,0,1,0,8.6,4.86,1.34,1.34,0,0,0,7.27,3.53Z" transform="translate(-1.45 -2.65)"/><path d="M22.1,5.31H9a.45.45,0,0,1,0-.89H22.1a.45.45,0,1,1,0,.89Z" transform="translate(-1.45 -2.65)"/><path d="M5.5,5.31H1.9a.45.45,0,1,1,0-.89H5.5a.45.45,0,0,1,0,.89Z" transform="translate(-1.45 -2.65)"/><path d="M17.32,14.22A2.22,2.22,0,1,1,19.54,12,2.22,2.22,0,0,1,17.32,14.22Zm0-3.55A1.33,1.33,0,1,0,18.65,12,1.34,1.34,0,0,0,17.32,10.67Z" transform="translate(-1.45 -2.65)"/><path d="M22.1,12.44h-3a.44.44,0,1,1,0-.88h3a.44.44,0,1,1,0,.88Z" transform="translate(-1.45 -2.65)"/><path d="M15.55,12.44H1.9a.44.44,0,1,1,0-.88H15.55a.44.44,0,0,1,0,.88Z" transform="translate(-1.45 -2.65)"/><path d="M10.82,21.35A2.22,2.22,0,1,1,13,19.14,2.21,2.21,0,0,1,10.82,21.35Zm0-3.54a1.33,1.33,0,1,0,1.33,1.33A1.32,1.32,0,0,0,10.82,17.81Z" transform="translate(-1.45 -2.65)"/><path d="M22.1,19.58H12.59a.45.45,0,0,1,0-.89H22.1a.45.45,0,1,1,0,.89Z" transform="translate(-1.45 -2.65)"/><path d="M9,19.58H1.9a.45.45,0,1,1,0-.89H9a.45.45,0,1,1,0,.89Z" transform="translate(-1.45 -2.65)"/></svg>