<svg id="Layer_1" data-name="Layer 1" xmlns="http://www.w3.org/2000/svg" viewBox="0 0 20.03 14.27"><path d="M17.87,10.71a.46.46,0,0,1-.2-.05.41.41,0,0,1-.21-.36v-5a.42.42,0,0,1,.21-.36.4.4,0,0,1,.42,0l3.74,2.51a.38.38,0,0,1,.18.34.41.41,0,0,1-.18.34l-3.74,2.51A.41.41,0,0,1,17.87,10.71ZM18.27,6V9.53l2.6-1.74Z" transform="translate(-1.99 -4.87)"/><path d="M17.87,19.13a.45.45,0,0,1-.2,0,.42.42,0,0,1-.21-.36v-5a.41.41,0,0,1,.21-.36.42.42,0,0,1,.42,0l3.74,2.52a.38.38,0,0,1,.18.33.38.38,0,0,1-.18.34l-3.74,2.51A.34.34,0,0,1,17.87,19.13Zm.4-4.66V18l2.6-1.75Z" transform="translate(-1.99 -4.87)"/><path d="M17.87,16.62H14.39a.38.38,0,0,1-.29-.12L5.79,8.19H2.39a.41.41,0,0,1,0-.81H6a.4.4,0,0,1,.29.12l8.3,8.31h3.32a.41.41,0,0,1,0,.81Z" transform="translate(-1.99 -4.87)"/><path d="M5.88,16.62H2.39a.41.41,0,0,1,0-.81H5.71L14,7.5a.4.4,0,0,1,.29-.12h3.57a.41.41,0,0,1,0,.81h-3.4L6.16,16.5A.38.38,0,0,1,5.88,16.62Z" transform="translate(-1.99 -4.87)"/></svg>