<svg id="Layer_1" data-name="Layer 1" xmlns="http://www.w3.org/2000/svg" viewBox="0 0 20.03 15.02"><path d="M13.48,19.51a.42.42,0,0,1-.21-.06L7.21,16.17a.44.44,0,0,1-.18-.6.43.43,0,0,1,.6-.18L13,18.32V5.68L7.63,8.61A.43.43,0,0,1,7,8.43a.44.44,0,0,1,.18-.6l6.06-3.28a.43.43,0,0,1,.44,0,.47.47,0,0,1,.22.39V19.06a.44.44,0,0,1-.45.45Z" transform="translate(-1.99 -4.49)"/><path d="M19.44,17.56a.47.47,0,0,1-.31-.12.45.45,0,0,1,0-.63,6.81,6.81,0,0,0,0-9.64.44.44,0,0,1,0-.62.43.43,0,0,1,.63,0,7.71,7.71,0,0,1,0,10.89A.47.47,0,0,1,19.44,17.56Z" transform="translate(-1.99 -4.49)"/><path d="M16.86,15a.43.43,0,0,1-.31-.13.44.44,0,0,1,0-.62,3.19,3.19,0,0,0,0-4.48.44.44,0,0,1,0-.62.45.45,0,0,1,.63,0,4.06,4.06,0,0,1,0,5.72A.44.44,0,0,1,16.86,15Z" transform="translate(-1.99 -4.49)"/><path d="M7.42,16.21H6.2a4.22,4.22,0,0,1,0-8.43H7.42a.44.44,0,0,1,.44.44.44.44,0,0,1-.44.44H6.2a3.33,3.33,0,0,0,0,6.66H7.42a.45.45,0,0,1,0,.89Z" transform="translate(-1.99 -4.49)"/></svg>