<svg id="Layer_1" data-name="Layer 1" xmlns="http://www.w3.org/2000/svg" viewBox="0 0 20.9 12.73"><path d="M16.37,18.36H2.74a1.18,1.18,0,0,1-1.19-1.18V6.82A1.18,1.18,0,0,1,2.74,5.64H16.37a1.18,1.18,0,0,1,1.19,1.18V17.18A1.18,1.18,0,0,1,16.37,18.36ZM2.74,6.45a.37.37,0,0,0-.37.37V17.18a.37.37,0,0,0,.37.37H16.37a.38.38,0,0,0,.37-.37V6.82a.38.38,0,0,0-.37-.37Z" transform="translate(-1.55 -5.64)"/><path d="M22,17.21a.39.39,0,0,1-.21-.06L17,14.23a.41.41,0,0,1-.13-.56.41.41,0,0,1,.56-.14l4.18,2.54V7.93l-4.18,2.54a.41.41,0,0,1-.56-.14A.41.41,0,0,1,17,9.77l4.81-2.92a.4.4,0,0,1,.41,0,.41.41,0,0,1,.21.36v9.6a.42.42,0,0,1-.21.36A.46.46,0,0,1,22,17.21Z" transform="translate(-1.55 -5.64)"/></svg>