<svg id="Layer_1" data-name="Layer 1" xmlns="http://www.w3.org/2000/svg" viewBox="0 0 21.32 21.32"><path d="M11.92,22.69A10.66,10.66,0,1,1,22.58,12,10.68,10.68,0,0,1,11.92,22.69Zm0-20.38A9.72,9.72,0,1,0,21.64,12,9.73,9.73,0,0,0,11.92,2.31Z" transform="translate(-1.25 -1.37)"/><path d="M16.41,17a.45.45,0,0,1-.34-.14l-9-9a.47.47,0,0,1,.67-.67l9,9a.47.47,0,0,1,0,.66A.43.43,0,0,1,16.41,17Z" transform="translate(-1.25 -1.37)"/><path d="M7.43,17a.47.47,0,0,1-.34-.8l9-9a.47.47,0,1,1,.67.67l-9,9A.43.43,0,0,1,7.43,17Z" transform="translate(-1.25 -1.37)"/></svg>