<svg id="Layer_1" data-name="Layer 1" xmlns="http://www.w3.org/2000/svg" viewBox="0 0 18.91 15.72"><path d="M2.79,11.8a.42.42,0,0,1-.3-.12,5.2,5.2,0,1,1,8.35-6,.42.42,0,0,1-.18.56A.4.4,0,0,1,10.1,6a4.37,4.37,0,1,0-7,5.06.42.42,0,0,1,0,.59A.48.48,0,0,1,2.79,11.8Z" transform="translate(-1.01 -2.85)"/><path d="M18.15,11.8a.44.44,0,0,1-.29-.11.41.41,0,0,1,0-.59,4.37,4.37,0,1,0-7-5.06.42.42,0,0,1-.57.18.41.41,0,0,1-.17-.56,5.2,5.2,0,1,1,8.35,6A.42.42,0,0,1,18.15,11.8Z" transform="translate(-1.01 -2.85)"/><path d="M10.47,18.56a.42.42,0,0,1-.28-.1L2.51,11.7a.42.42,0,1,1,.55-.63l7.41,6.52,7.4-6.52a.42.42,0,0,1,.59,0,.41.41,0,0,1,0,.59l-7.68,6.76A.39.39,0,0,1,10.47,18.56Z" transform="translate(-1.01 -2.85)"/></svg>