<svg id="Layer_1" data-name="Layer 1" xmlns="http://www.w3.org/2000/svg" viewBox="0 0 21.31 21.31"><path d="M4.38,19.57a10.66,10.66,0,1,1,15.08,0A10.67,10.67,0,0,1,4.38,19.57ZM18.79,5.16a9.72,9.72,0,1,0,0,13.74A9.72,9.72,0,0,0,18.79,5.16Z" transform="translate(-1.26 -1.37)"/><path d="M11.58,18.71a.47.47,0,0,1-.13-.33V5.68a.47.47,0,1,1,.94,0v12.7a.47.47,0,0,1-.47.47A.48.48,0,0,1,11.58,18.71Z" transform="translate(-1.26 -1.37)"/><path d="M5.24,12.37A.48.48,0,0,1,5.1,12a.47.47,0,0,1,.47-.47h12.7a.47.47,0,0,1,0,.94H5.57A.47.47,0,0,1,5.24,12.37Z" transform="translate(-1.26 -1.37)"/></svg>