<svg id="Layer_1" data-name="Layer 1" xmlns="http://www.w3.org/2000/svg" viewBox="0 0 12.5 21.38"><path d="M12,15.57A3.61,3.61,0,0,1,8.39,12V4.9a3.61,3.61,0,1,1,7.22,0V12A3.61,3.61,0,0,1,12,15.57ZM12,2.16A2.74,2.74,0,0,0,9.27,4.9V12a2.73,2.73,0,0,0,5.46,0V4.9A2.74,2.74,0,0,0,12,2.16Z" transform="translate(-5.75 -1.29)"/><path d="M12,17.32A5.37,5.37,0,0,1,6.64,12V11a.44.44,0,0,1,.44-.44.44.44,0,0,1,.43.44v1a4.49,4.49,0,0,0,9,0V11a.44.44,0,1,1,.88,0v1A5.37,5.37,0,0,1,12,17.32Z" transform="translate(-5.75 -1.29)"/><path d="M12,22.67a.44.44,0,0,1-.44-.44V16.88a.44.44,0,0,1,.88,0v5.35A.44.44,0,0,1,12,22.67Z" transform="translate(-5.75 -1.29)"/><path d="M14.87,22.67H9.13a.44.44,0,0,1,0-.88h5.74a.44.44,0,0,1,0,.88Z" transform="translate(-5.75 -1.29)"/><path d="M6.19,15.17A.43.43,0,0,1,5.88,15a.44.44,0,0,1,0-.62L17.5,2.8a.44.44,0,1,1,.62.62L6.5,15A.43.43,0,0,1,6.19,15.17Z" transform="translate(-5.75 -1.29)"/></svg>