<svg id="Layer_1" data-name="Layer 1" xmlns="http://www.w3.org/2000/svg" viewBox="0 0 20.56 21"><path d="M15.26,15.65a2.65,2.65,0,0,1-2.19-1.16.3.3,0,0,1,.08-.41.33.33,0,0,1,.16-.05.31.31,0,0,1,.25.13,2,2,0,0,0,3.4,0A.28.28,0,0,1,17.2,14a.28.28,0,0,1,.16.05.29.29,0,0,1,.08.41A2.64,2.64,0,0,1,15.26,15.65Z" transform="translate(-1.72 -1.5)"/><path d="M8.78,15.65A2.64,2.64,0,0,1,6.6,14.49a.3.3,0,0,1,.07-.41A.34.34,0,0,1,6.84,14a.31.31,0,0,1,.24.13,2,2,0,0,0,3.4,0,.31.31,0,0,1,.24-.13.34.34,0,0,1,.17.05.3.3,0,0,1,.08.41A2.67,2.67,0,0,1,8.78,15.65Z" transform="translate(-1.72 -1.5)"/><path d="M12.05,19.15a1.38,1.38,0,0,1-1.15-.62.28.28,0,0,1,0-.22.25.25,0,0,1,.12-.18.3.3,0,0,1,.16-.05.28.28,0,0,1,.24.13.82.82,0,0,0,.67.35.84.84,0,0,0,.68-.35.28.28,0,0,1,.24-.13.3.3,0,0,1,.16.05.29.29,0,0,1,.08.4A1.38,1.38,0,0,1,12.05,19.15Z" transform="translate(-1.72 -1.5)"/><path d="M11.87,22.5a8.3,8.3,0,0,1-7.65-5.05l0-.06H4.12a2.59,2.59,0,0,1-.42-5.1l.07,0,0-.07a8.32,8.32,0,0,1,16.15,0l0,.08H20a2.59,2.59,0,0,1-.36,5.16h-.13l0,.07A8.31,8.31,0,0,1,11.87,22.5ZM4.58,16.79a7.75,7.75,0,0,0,14.6-.05,1.68,1.68,0,0,0,.5.07,2,2,0,1,0,0-4h-.19A7.77,7.77,0,0,0,14.6,6.93l-.33-.12.19.29a2.51,2.51,0,0,1,.44,1.33,2.39,2.39,0,0,1-.7,1.66,2,2,0,0,1-1.39.64h0a2,2,0,0,1-1.38-.63,1.27,1.27,0,0,1-.4-.91A1.19,1.19,0,0,1,11.77,8a.86.86,0,0,1,.32,0,1.2,1.2,0,0,1,1,.49.27.27,0,0,1,.06.21.31.31,0,0,1-.11.2.28.28,0,0,1-.18.06.31.31,0,0,1-.23-.12.66.66,0,0,0-.5-.26l-.14,0c-.23.07-.36.31-.37.66a.73.73,0,0,0,.24.49,1.51,1.51,0,0,0,1,.45h0a1.35,1.35,0,0,0,1-.47,1.8,1.8,0,0,0,.54-1.23A2,2,0,0,0,13.62,7a2.78,2.78,0,0,0-1.83-.56,5.89,5.89,0,0,0-.69,0H11a7.76,7.76,0,0,0-6.72,6.3,2,2,0,0,0,.06,4Z" transform="translate(-1.72 -1.5)"/><path d="M9,4.57a.28.28,0,0,1-.27-.18.29.29,0,0,1,.06-.32l2-2H9.23a.29.29,0,1,1,0-.58h2.3a.29.29,0,0,1,.27.18.3.3,0,0,1-.07.32l-2,2h2a.3.3,0,0,1,.29.3.29.29,0,0,1-.29.29Z" transform="translate(-1.72 -1.5)"/><path d="M5.9,6.19A.28.28,0,0,1,5.63,6a.29.29,0,0,1,.06-.32L6.94,4.46H6.06a.29.29,0,1,1,0-.58h1.6a.28.28,0,0,1,.26.18.29.29,0,0,1-.06.32L6.61,5.61H7.75a.29.29,0,1,1,0,.58Z" transform="translate(-1.72 -1.5)"/></svg>