<svg id="Layer_1" data-name="Layer 1" xmlns="http://www.w3.org/2000/svg" viewBox="0 0 19.72 19.72"><path d="M10.36,12.76a2.24,2.24,0,1,1,2.24-2.24A2.24,2.24,0,0,1,10.36,12.76Zm0-3.74a1.5,1.5,0,1,0,1.5,1.5A1.51,1.51,0,0,0,10.36,9Z" transform="translate(-0.42 -0.64)"/><path d="M9.73,9.13a.37.37,0,0,1-.36-.29A9.61,9.61,0,0,1,10,2.51a.37.37,0,1,1,.67.31,8.84,8.84,0,0,0-.6,5.85.37.37,0,0,1-.27.45Z" transform="translate(-0.42 -0.64)"/><path d="M8.52,10.55l-.11,0A9.48,9.48,0,0,1,3.25,6.8a.36.36,0,0,1,.09-.51.37.37,0,0,1,.52.09A8.75,8.75,0,0,0,8.62,9.82a.37.37,0,0,1,.25.46A.36.36,0,0,1,8.52,10.55Z" transform="translate(-0.42 -0.64)"/><path d="M3.55,14.82a.38.38,0,0,1-.37-.34.38.38,0,0,1,.34-.4,8.81,8.81,0,0,0,5.37-2.41.37.37,0,0,1,.52,0,.37.37,0,0,1,0,.52,9.6,9.6,0,0,1-5.82,2.61Z" transform="translate(-0.42 -0.64)"/><path d="M10.36,18.75a.29.29,0,0,1-.16,0,.37.37,0,0,1-.18-.49,8.84,8.84,0,0,0,.6-5.85.38.38,0,0,1,.27-.45.38.38,0,0,1,.45.28,9.55,9.55,0,0,1-.65,6.33A.36.36,0,0,1,10.36,18.75Z" transform="translate(-0.42 -0.64)"/><path d="M17.16,14.82a.37.37,0,0,1-.3-.16,8.77,8.77,0,0,0-4.77-3.44.37.37,0,0,1,.21-.71,9.54,9.54,0,0,1,5.16,3.73.36.36,0,0,1-.09.51A.33.33,0,0,1,17.16,14.82Z" transform="translate(-0.42 -0.64)"/><path d="M11.57,9.47a.37.37,0,0,1-.27-.12.37.37,0,0,1,0-.52,9.59,9.59,0,0,1,5.81-2.61.38.38,0,0,1,.4.34.37.37,0,0,1-.34.4,8.84,8.84,0,0,0-5.37,2.41A.35.35,0,0,1,11.57,9.47Z" transform="translate(-0.42 -0.64)"/><path d="M17.22,14.81a.26.26,0,0,1-.19-.07A.31.31,0,0,1,17,14.3a6.47,6.47,0,0,0,1-3.73,7.64,7.64,0,0,0-1-3.82.31.31,0,1,1,.54-.32,8.26,8.26,0,0,1,1.11,4.14,7,7,0,0,1-1.15,4.13A.33.33,0,0,1,17.22,14.81Z" transform="translate(-0.42 -0.64)"/><path d="M10.35,18.84a8.28,8.28,0,0,1-7.24-4.26.31.31,0,0,1,.12-.43.31.31,0,0,1,.43.12,7.66,7.66,0,0,0,6.69,3.94h0a.32.32,0,1,1,0,.63Z" transform="translate(-0.42 -0.64)"/><path d="M3.53,6.88a.28.28,0,0,1-.15,0,.3.3,0,0,1-.12-.42,7.93,7.93,0,0,1,7-4.13h0a.31.31,0,0,1,.31.32.31.31,0,0,1-.31.31,7.31,7.31,0,0,0-6.45,3.8A.31.31,0,0,1,3.53,6.88Z" transform="translate(-0.42 -0.64)"/><path d="M10.28,20.36a9.86,9.86,0,1,1,9.86-9.86A9.87,9.87,0,0,1,10.28,20.36Zm0-19.09a9.23,9.23,0,1,0,9.23,9.23A9.24,9.24,0,0,0,10.28,1.27Z" transform="translate(-0.42 -0.64)"/></svg>