<svg id="Layer_1" data-name="Layer 1" xmlns="http://www.w3.org/2000/svg" viewBox="0 0 22.3 19.59"><path d="M21.69,21.53H2.32A1.46,1.46,0,0,1,.86,20.07V7.65A1.46,1.46,0,0,1,2.32,6.19H21.69a1.46,1.46,0,0,1,1.46,1.46V20.07A1.46,1.46,0,0,1,21.69,21.53ZM2.32,7.15a.5.5,0,0,0-.5.5V20.07a.49.49,0,0,0,.5.49H21.69a.49.49,0,0,0,.5-.49V7.65a.5.5,0,0,0-.5-.5Z" transform="translate(-0.86 -1.94)"/><path d="M15.64,17.74a4,4,0,1,1,4-4A4,4,0,0,1,15.64,17.74Zm0-7.12a3.08,3.08,0,1,0,3.08,3.08A3.08,3.08,0,0,0,15.64,10.62Z" transform="translate(-0.86 -1.94)"/><path d="M7.69,5.78a.44.44,0,0,1-.22,0,.48.48,0,0,1-.21-.65L8.73,2.2a.49.49,0,0,1,.43-.26h5.69a.49.49,0,0,1,.43.26l1.47,2.88a.48.48,0,1,1-.86.44L14.55,2.9H9.46L8.12,5.52A.47.47,0,0,1,7.69,5.78Z" transform="translate(-0.86 -1.94)"/><path d="M4.42,5.78H2.76a.48.48,0,1,1,0-1H4.42a.48.48,0,1,1,0,1Z" transform="translate(-0.86 -1.94)"/></svg>