<svg xmlns="http://www.w3.org/2000/svg" viewBox="0 0 98.56 93.3"><g id="Layer_4" data-name="Layer 4"><path d="M40.14,117.49c-12.26,0-18.87-6.33-18.87-14.41s6.61-14.41,18.87-14.41S59,95,59,103.08,52.4,117.49,40.14,117.49Zm0-23.82c-9.15,0-13.87,4.31-13.87,9.41s4.72,9.41,13.87,9.41S54,108.18,54,103.08,49.28,93.67,40.14,93.67Z" transform="translate(-21.27 -24.19)"/><path d="M117.33,29.19a2.47,2.47,0,0,1-.7-.1L55.81,38.86a2.5,2.5,0,0,1,1.4-4.8L118,24.29a2.5,2.5,0,0,1-.7,4.9Z" transform="translate(-21.27 -24.19)"/><path d="M117.33,42.92a2.47,2.47,0,0,1-.7-.1L55.81,52.59a2.5,2.5,0,0,1,1.4-4.8L118,38a2.5,2.5,0,0,1-.7,4.9Z" transform="translate(-21.27 -24.19)"/><path d="M55.89,105.51A2.59,2.59,0,0,1,54,103V36.6A2.6,2.6,0,0,1,56.25,34,2.5,2.5,0,0,1,59,36.46v66.62A2.51,2.51,0,0,1,55.89,105.51Z" transform="translate(-21.27 -24.19)"/><path d="M101,107.72c-12.26,0-18.87-6.33-18.87-14.41S88.7,78.9,101,78.9s18.87,6.33,18.87,14.41S113.23,107.72,101,107.72Zm0-23.82c-9.14,0-13.87,4.31-13.87,9.41s4.73,9.41,13.87,9.41,13.87-4.31,13.87-9.41S110.11,83.9,101,83.9Z" transform="translate(-21.27 -24.19)"/><path d="M117.11,95.8a2.63,2.63,0,0,1-2.28-2.67V26.87a2.62,2.62,0,0,1,2.28-2.67,2.49,2.49,0,0,1,2.72,2.49V93.31A2.5,2.5,0,0,1,117.11,95.8Z" transform="translate(-21.27 -24.19)"/></g></svg>