<svg id="Layer_1" data-name="Layer 1" xmlns="http://www.w3.org/2000/svg" viewBox="0 0 21.21 21.21"><path d="M12,22.61A10.61,10.61,0,1,1,22.61,12,10.62,10.62,0,0,1,12,22.61ZM12,2.33A9.67,9.67,0,1,0,21.67,12,9.68,9.68,0,0,0,12,2.33Z" transform="translate(-1.39 -1.39)"/><path d="M8.48,16.93a.5.5,0,0,1-.34-.13L6,14.6a.47.47,0,0,1,.66-.66l2.2,2.19a.48.48,0,0,1,0,.67A.46.46,0,0,1,8.48,16.93Z" transform="translate(-1.39 -1.39)"/><path d="M8.48,16.93a.5.5,0,0,1-.34-.13.48.48,0,0,1,0-.67L17.07,7.2a.47.47,0,1,1,.67.67L8.81,16.8A.46.46,0,0,1,8.48,16.93Z" transform="translate(-1.39 -1.39)"/></svg>