<svg id="Layer_1" data-name="Layer 1" xmlns="http://www.w3.org/2000/svg" viewBox="0 0 11.71 15.02"><path d="M11.49,15a.39.39,0,0,1-.21-.06L5.22,11.68A.43.43,0,0,1,5,11.09H5a.43.43,0,0,1,.58-.19h0L11,13.83V1.19L5.64,4.12A.44.44,0,0,1,5,4l0-.06a.44.44,0,0,1,.17-.6h0L11.25.06a.43.43,0,0,1,.44,0,.47.47,0,0,1,.22.39V14.57a.44.44,0,0,1-.43.45h0Z" transform="translate(-0.2 0)"/><path d="M5.43,11.72H4.21a4.22,4.22,0,0,1,0-8.43H5.43a.44.44,0,0,1,0,.88H4.21a3.33,3.33,0,0,0,0,6.66H5.43a.45.45,0,0,1,0,.89Z" transform="translate(-0.2 0)"/></svg>