<svg id="Layer_1" data-name="Layer 1" xmlns="http://www.w3.org/2000/svg" viewBox="0 0 13.31 19.93"><path d="M10.28,17.85a6.67,6.67,0,0,1-6.66-6.66C3.62,7.62,9.73.87,10,.58a.42.42,0,0,1,.59,0c.26.29,6.37,7,6.37,10.61A6.67,6.67,0,0,1,10.28,17.85Zm0-16.4C9.05,2.86,4.42,8.34,4.42,11.19a5.86,5.86,0,0,0,11.72,0C16.14,8.34,11.51,2.86,10.28,1.45Z" transform="translate(-3.62 -0.46)"/><path d="M10.28,8.12a.4.4,0,0,1,.4.4V20a.4.4,0,0,1-.8,0V8.52A.4.4,0,0,1,10.28,8.12Z" transform="translate(-3.62 -0.46)"/><path d="M10.39,15.11A.42.42,0,0,1,10.1,15a.42.42,0,0,1,0-.59L12.53,12a.42.42,0,0,1,.59.59L10.69,15A.44.44,0,0,1,10.39,15.11Z" transform="translate(-3.62 -0.46)"/><path d="M10.59,11.87a.4.4,0,0,1-.12.29.39.39,0,0,1-.58,0L7.45,9.73a.41.41,0,0,1,0-.58.4.4,0,0,1,.59,0l2.43,2.43A.4.4,0,0,1,10.59,11.87Z" transform="translate(-3.62 -0.46)"/></svg>