<svg id="Layer_1" data-name="Layer 1" xmlns="http://www.w3.org/2000/svg" viewBox="0 0 20.98 18.9"><path d="M21.87,21.45h-20A.47.47,0,0,1,1.37,21V4.91a.47.47,0,0,1,.48-.48h20a.47.47,0,0,1,.48.48V21A.47.47,0,0,1,21.87,21.45Zm-19.54-1H21.39V5.39H2.33Z" transform="translate(-1.37 -2.55)"/><path d="M19.57,7.27a.49.49,0,0,1-.48-.48V3a.48.48,0,0,1,.48-.48.47.47,0,0,1,.48.48V6.79A.48.48,0,0,1,19.57,7.27Z" transform="translate(-1.37 -2.55)"/><path d="M15.72,7.27a.48.48,0,0,1-.48-.48V3a.47.47,0,0,1,.48-.48A.48.48,0,0,1,16.2,3V6.79A.49.49,0,0,1,15.72,7.27Z" transform="translate(-1.37 -2.55)"/><path d="M11.86,7.27a.48.48,0,0,1-.48-.48V3a.48.48,0,0,1,1,0V6.79A.48.48,0,0,1,11.86,7.27Z" transform="translate(-1.37 -2.55)"/><path d="M8,7.27a.49.49,0,0,1-.48-.48V3A.48.48,0,0,1,8,2.55.47.47,0,0,1,8.48,3V6.79A.48.48,0,0,1,8,7.27Z" transform="translate(-1.37 -2.55)"/><path d="M4.15,7.27a.48.48,0,0,1-.48-.48V3a.47.47,0,0,1,.48-.48A.48.48,0,0,1,4.63,3V6.79A.49.49,0,0,1,4.15,7.27Z" transform="translate(-1.37 -2.55)"/><path d="M13.66,13.65H10.24a.47.47,0,0,1-.48-.48V9.75a.47.47,0,0,1,.48-.48h3.42a.48.48,0,0,1,.48.48v3.42A.48.48,0,0,1,13.66,13.65Zm-2.94-1h2.46V10.23H10.72Z" transform="translate(-1.37 -2.55)"/><path d="M19.06,13.65H15.64a.47.47,0,0,1-.48-.48V9.75a.47.47,0,0,1,.48-.48h3.42a.48.48,0,0,1,.48.48v3.42A.48.48,0,0,1,19.06,13.65Zm-2.94-1h2.46V10.23H16.12Z" transform="translate(-1.37 -2.55)"/><path d="M8.26,19.05H4.83a.48.48,0,0,1-.48-.48V15.15a.48.48,0,0,1,.48-.48H8.26a.48.48,0,0,1,.48.48v3.42A.48.48,0,0,1,8.26,19.05Zm-2.95-1H7.77V15.63H5.31Z" transform="translate(-1.37 -2.55)"/><path d="M13.66,19.05H10.24a.47.47,0,0,1-.48-.48V15.15a.47.47,0,0,1,.48-.48h3.42a.48.48,0,0,1,.48.48v3.42A.48.48,0,0,1,13.66,19.05Zm-2.94-1h2.46V15.63H10.72Z" transform="translate(-1.37 -2.55)"/><path d="M19.06,19.05H15.64a.47.47,0,0,1-.48-.48V15.15a.47.47,0,0,1,.48-.48h3.42a.48.48,0,0,1,.48.48v3.42A.48.48,0,0,1,19.06,19.05Zm-2.94-1h2.46V15.63H16.12Z" transform="translate(-1.37 -2.55)"/></svg>