<svg id="Layer_1" data-name="Layer 1" xmlns="http://www.w3.org/2000/svg" viewBox="0 0 22.13 20.08"><path d="M21.87,8.87a.28.28,0,0,1-.15,0l-1.26-.66-1.26.66a.32.32,0,0,1-.34,0,.34.34,0,0,1-.13-.32L19,7.09l-1-1a.35.35,0,0,1-.08-.34.34.34,0,0,1,.26-.22l1.41-.2.63-1.28a.32.32,0,0,1,.29-.18h0a.32.32,0,0,1,.29.18l.63,1.28,1.41.2a.34.34,0,0,1,.26.22A.35.35,0,0,1,23,6.1l-1,1,.24,1.4a.34.34,0,0,1-.13.32A.33.33,0,0,1,21.87,8.87Zm-1.51-.75Zm.2,0Zm-.1-.63a.46.46,0,0,1,.2,0l.78.41-.15-.86a.44.44,0,0,1,.13-.39L22,6.09,21.18,6a.42.42,0,0,1-.33-.24l-.39-.78-.39.79a.43.43,0,0,1-.33.23l-.86.13.62.61a.44.44,0,0,1,.13.39L19.48,8l.78-.41A.46.46,0,0,1,20.46,7.49Z" transform="translate(-0.94 -1.96)"/><path d="M1.91,22A.35.35,0,0,1,1.72,22a.34.34,0,0,1-.13-.32l.18-1L1,19.94A.35.35,0,0,1,1,19.6a.34.34,0,0,1,.26-.22l1-.14.45-.92a.32.32,0,0,1,.58,0l.45.92,1,.14A.34.34,0,0,1,5,19.6a.33.33,0,0,1-.08.34l-.74.71.18,1a.34.34,0,0,1-.13.32.32.32,0,0,1-.34,0L3,21.53,2.06,22A.24.24,0,0,1,1.91,22Zm1-.57Zm.22,0ZM3,20.85a.41.41,0,0,1,.19,0l.44.23-.09-.48a.4.4,0,0,1,.12-.36L4,19.93l-.48-.07a.4.4,0,0,1-.31-.22L3,19.19l-.22.45a.4.4,0,0,1-.3.22L2,19.93l.35.35a.4.4,0,0,1,.12.36l-.09.48.44-.23A.41.41,0,0,1,3,20.85Zm-1.18-.32Zm2.36,0Z" transform="translate(-0.94 -1.96)"/><path d="M15,5.86a.31.31,0,0,1-.19-.06.33.33,0,0,1-.13-.32l.17-1-.73-.71a.32.32,0,0,1-.08-.33.3.3,0,0,1,.26-.22l1-.15.45-.92A.33.33,0,0,1,16.08,2a.31.31,0,0,1,.29.18l.46.92,1,.15a.31.31,0,0,1,.26.22.32.32,0,0,1-.08.33l-.73.71.17,1a.33.33,0,0,1-.13.32.32.32,0,0,1-.34,0l-.91-.47-.9.47A.28.28,0,0,1,15,5.86Zm0-2.11.35.35a.4.4,0,0,1,.12.36L15.46,5l.43-.23a.37.37,0,0,1,.38,0l.44.23-.08-.49a.4.4,0,0,1,.11-.36l.36-.35-.49-.07a.42.42,0,0,1-.31-.22L16.08,3l-.21.44a.42.42,0,0,1-.31.22Zm2.2.6Zm-.39-1.18Z" transform="translate(-0.94 -1.96)"/><path d="M10.67,20.24a7.37,7.37,0,0,1-7.21-5.58.32.32,0,0,1,.21-.38.33.33,0,0,1,.4.17A5.77,5.77,0,0,0,9.32,17.8a5.7,5.7,0,0,0,5.75-5.63A5.69,5.69,0,0,0,9.32,6.54l-.44,0a.32.32,0,0,1-.11-.63,7.42,7.42,0,0,1,9.33,7A7.37,7.37,0,0,1,10.67,20.24ZM5.39,17.11a6.81,6.81,0,0,0,5.28,2.48A6.72,6.72,0,0,0,17.45,13a6.68,6.68,0,0,0-5.51-6.52,6.26,6.26,0,0,1-2.62,12A6.43,6.43,0,0,1,5.39,17.11Z" transform="translate(-0.94 -1.96)"/></svg>